<svg width="1068" height="622" viewBox="0 0 1068 622" fill="none" xmlns="http://www.w3.org/2000/svg">
<path d="M411.5 158.5C416.747 158.5 421 154.247 421 149C421 143.753 416.747 139.5 411.5 139.5C406.253 139.5 402 143.753 402 149C402 154.247 406.253 158.5 411.5 158.5Z" fill="#C3C3C3"/>
<path opacity="0.9" d="M388.5 156C394.299 156 399 151.299 399 145.5C399 139.701 394.299 135 388.5 135C382.701 135 378 139.701 378 145.5C378 151.299 382.701 156 388.5 156Z" fill="#C3C3C3"/>
<path opacity="0.75" d="M368.5 141C374.851 141 380 135.851 380 129.5C380 123.149 374.851 118 368.5 118C362.149 118 357 123.149 357 129.5C357 135.851 362.149 141 368.5 141Z" fill="#C3C3C3"/>
<path opacity="0.5" d="M350.5 119C357.404 119 363 113.404 363 106.5C363 99.5964 357.404 94 350.5 94C343.596 94 338 99.5964 338 106.5C338 113.404 343.596 119 350.5 119Z" fill="#C3C3C3"/>
<path opacity="0.2" d="M340 89C348.284 89 355 82.2843 355 74C355 65.7157 348.284 59 340 59C331.716 59 325 65.7157 325 74C325 82.2843 331.716 89 340 89Z" fill="#C3C3C3"/>
<path d="M933.096 70.7266L1042.89 212.664L1005.47 237.37L879.43 117.232L933.096 70.7266Z" fill="#F5B84A"/>
<path d="M714 143.875L900.601 0C926.484 35.2063 944.98 57.9546 942.451 60.0692C949.839 66.3896 826.096 188.556 733.202 288.235L714 143.875Z" fill="#E28E3D"/>
<path d="M1003.5 264.499L1046.83 275.156L1048.31 345.883L995.132 280.485L1003.5 264.499Z" fill="#F5B84A"/>
<path d="M879.43 319.723L904.54 344.429L886.323 359.446L862.69 331.349L879.43 319.723Z" fill="#F5B84A"/>
<path d="M905.032 299.861L927.68 327.474L912.417 338.616L889.277 312.456L905.032 299.861Z" fill="#F5B84A"/>
<path d="M931.127 281.453L953.775 309.55L937.527 321.176L915.372 293.079L931.127 281.453Z" fill="#F5B84A"/>
<path d="M1047.32 349.758C1047.32 384.538 1000.57 420 966.575 420C929.649 415.156 907.494 386.09 884.353 356.54C972.484 292.2 944.42 315.848 995.132 280C1029.12 280 1047.32 314.977 1047.32 349.758Z" fill="#F5B84A"/>
<path d="M1068 243.184C1068 260.039 1057.88 274.671 1039.94 274.671C1018.91 277.727 994.973 263.612 998.578 243.184C998.545 225.014 1020.99 209.126 1038.95 209.758C1056.9 209.758 1068 226.328 1068 243.184Z" fill="#E28E3D"/>
<path d="M890 46.5C896.789 46.5 903 52.2611 903 59C903 61.9527 902.286 65.4477 900.285 68.1299C898.151 70.9901 894.732 72.6629 890.129 71.9727C884.347 71.1053 880.708 69.6894 878.868 66.9727C877.938 65.5998 877.635 64.1315 877.531 62.8066C877.435 61.5838 877.5 60.1241 877.5 59C877.5 52.4175 883.052 46.5003 890 46.5Z" fill="#E28E3D" stroke="#F5B84A" stroke-width="5"/>
<path d="M1032.5 229.5C1039.29 229.5 1045.5 235.261 1045.5 242C1045.5 245.041 1044.62 248.545 1042.48 251.203C1040.23 253.998 1036.72 255.661 1032.13 254.973C1026.23 254.088 1022.65 252.449 1020.85 249.636C1019.96 248.243 1019.66 246.786 1019.56 245.496C1019.47 244.317 1019.53 242.925 1019.52 242.012C1019.51 238.904 1021.16 235.8 1023.41 233.547C1025.69 231.266 1028.91 229.5 1032.5 229.5Z" fill="#E28E3D" stroke="#F5B84A" stroke-width="5"/>
<path d="M379.5 224.166H731.5L758 434.166L362 431.166C367.872 318.902 371.637 252.343 379.5 224.166Z" fill="#F5B84A"/>
<path d="M527 70.666C614.645 68.3669 685.724 63.7154 713 70.666C714 81.666 723.104 166.368 731.5 224.166H507.5C514.099 156.44 516.973 112.137 527 70.666Z" fill="#F5B84A"/>
<path d="M562 108.999C575.07 106.545 625.432 104.73 677 107.999C680.883 134.654 684.463 174.728 690 230.999H556.5C556.988 174.366 556.756 125.945 562 108.999Z" fill="#FDEFDC"/>
<path d="M403 211.738C406 208.239 469.5 203.5 473 208.5C476.5 213.501 475.904 220.135 476.5 224.239H398.5C398.5 224.239 400 215.237 403 211.738Z" fill="#616375"/>
<path d="M450 162H425V209H450V162Z" fill="#616375"/>
<path d="M411 139C431.017 138.83 441.669 138.836 445.5 141.5C447.924 142.59 448.77 148.53 450 162H425C422.499 161.55 411 159 411 159V139Z" fill="#616375"/>
<path d="M412.155 257.396C420.514 257.13 426.184 257.498 434.334 257.878C436.91 257.999 439.007 260.051 439.106 262.668C439.999 286.293 440.294 314.724 440.268 337.574C440.255 349 440.162 359.04 440.022 366.392C439.952 370.067 439.87 373.079 439.781 375.262C439.736 376.352 439.69 377.249 439.64 377.923C439.615 378.259 439.589 378.556 439.56 378.802C439.536 379.005 439.496 379.305 439.417 379.571C439.126 380.545 438.326 381.036 437.956 381.236C437.488 381.488 436.943 381.675 436.409 381.822C435.324 382.12 433.907 382.353 432.334 382.537C429.166 382.907 425.066 383.109 421.022 383.152C416.978 383.195 412.922 383.079 409.84 382.795C408.314 382.655 406.948 382.466 405.923 382.212C405.426 382.089 404.89 381.923 404.432 381.677C404.129 381.514 403.079 380.909 403.003 379.617L403.001 379.583L403 379.55C401.753 329.875 404.967 305.655 407.356 262.119C407.496 259.572 409.547 257.479 412.155 257.396Z" stroke="#EFAB46" stroke-width="4"/>
<path d="M435.487 253.048C435.53 256.059 435.405 257.6 435 260.168C435 260.168 436.455 263.763 436.461 260.881C436.466 257.998 438.409 254.472 437.922 254.472C437.922 254.472 435.444 250.037 435.487 253.048Z" fill="#F5B84A" stroke="#F5B84A"/>
<path d="M493.778 257.915C496.412 257.964 498.508 260.062 498.605 262.667C499.494 286.326 499.734 315.183 499.653 338.449C499.613 350.083 499.493 360.329 499.333 367.835C499.253 371.587 499.163 374.664 499.067 376.891C499.02 378.003 498.971 378.916 498.92 379.602C498.894 379.944 498.867 380.245 498.838 380.494C498.814 380.698 498.774 381 498.694 381.266C498.404 382.24 497.604 382.73 497.233 382.93C496.766 383.183 496.221 383.37 495.687 383.517C494.601 383.815 493.185 384.047 491.612 384.231C488.444 384.601 484.343 384.804 480.3 384.847C476.256 384.89 472.2 384.774 469.118 384.491C467.591 384.35 466.226 384.161 465.201 383.908C464.704 383.785 464.168 383.619 463.71 383.373C463.407 383.21 462.357 382.604 462.281 381.312L462.279 381.279L462.278 381.246C461.031 331.57 464.245 307.351 466.634 263.814C466.774 261.254 468.827 259.206 471.378 259.057C479.509 258.582 485.467 257.758 493.778 257.915Z" stroke="#EFAB46" stroke-width="4"/>
<path d="M491 260.5C492.945 259.083 492.703 257.026 491.5 254.5C498.272 252.838 500.402 255.459 500 260.5C497.433 259.77 496.219 260.932 496 264L491 260.5Z" fill="#F5B84A" stroke="#F5B84A"/>
<path d="M558.856 264.825C558.937 264.348 559.352 264 559.836 264H606.5C608.017 263.867 607.432 276.721 606.628 281.773C606.558 282.209 606.204 282.529 605.763 282.561C598.062 283.105 566.855 283.17 559.242 282.12C558.797 282.059 558.474 281.691 558.44 281.244C557.866 273.84 557.98 270.003 558.856 264.825Z" fill="#EFAB46"/>
<path d="M570.5 408.749C583.519 405.393 592.052 405.525 608 406.946C611.251 408.386 614.309 413.464 621 426.778L590.5 440L560 426.778C563.875 416.537 566.16 412.325 570.5 408.749Z" fill="#535568"/>
<path d="M288.396 543.069C290.752 549.957 307.359 571.531 310.668 575.083C313.977 578.635 317.188 575.793 329.353 573.048C329.353 573.048 299.299 526.346 299.335 528.149C299.371 529.951 286.04 536.18 288.396 543.069Z" fill="#535568"/>
<path d="M418.003 609C425.003 611 460.204 610.397 462.704 609.771C465.204 609.146 468.809 600.054 473.503 588.501C473.503 588.501 411.503 586.5 412.003 588C412.503 589.5 411.003 607 418.003 609Z" fill="#535568"/>
<path d="M649.715 406.58C660.249 404.122 675.283 402.824 695.715 403.019C702.161 408.795 702.916 418.19 706 427.799L674.5 436L641 427.799C645.129 416.096 645.09 410.667 649.715 406.58Z" fill="#535568"/>
<path d="M390.181 604.112C379.415 604.528 363.175 601.027 342.954 597.655C337.337 591.779 340.611 588.714 338.837 580.138L372.736 573.864L404.024 590.464C398.371 599.671 395.309 601.396 390.181 604.112Z" fill="#535568"/>
<path d="M506.5 607.566C517.388 609.785 534.479 608.813 555.599 608.637C562.262 603.423 559.312 599.675 562.5 591L527.5 577.5L494 591C498.268 601.565 501.72 603.877 506.5 607.566Z" fill="#535568"/>
<path d="M734.583 406.408C746.053 407.243 753.842 407.81 769.99 408.985C775.741 414.383 780.948 420.624 783.272 429.077L751.524 439.657L720.731 424.524C725.377 414.774 730.231 411.104 734.583 406.408Z" fill="#535568"/>
<path d="M815.555 424.781C827.357 433.806 839.541 450.343 841.909 456.189C838.993 465.815 836.088 472.911 829.773 482.037L796.13 467.858L788.313 432.627C800.823 427.255 813.149 422.94 815.555 424.781Z" fill="#535568"/>
<path d="M856.276 513.965C856.493 528.793 849.562 550.864 846.561 556.384C837.56 560.2 825.086 560.845 814.439 561.714L809.54 526.594L835.351 498.073C846.855 504.366 856.232 510.942 856.276 513.965Z" fill="#535568"/>
<path d="M856.276 513.965C856.493 528.793 849.562 550.864 846.561 556.384C837.56 560.2 825.086 560.845 814.439 561.714L809.54 526.594L835.351 498.073C846.855 504.366 856.232 510.942 856.276 513.965Z" fill="#535568"/>
<path d="M817.68 590.932C810.084 598.54 782.224 603.91 777.692 604.7C770.729 600.656 771.188 595.782 766.664 589.196L779.984 563.922L810.482 564.193C814.779 574.826 819.229 589.381 817.68 590.932Z" fill="#535568"/>
<path d="M817.68 590.932C810.084 598.54 782.224 603.91 777.692 604.7C769.683 600.049 770.757 591.464 764.417 584.846L779.984 563.922L810.482 564.193C814.779 574.826 819.229 589.381 817.68 590.932Z" fill="#535568"/>
<path d="M283.679 502.301C281.832 491.838 289.252 464.946 291.336 462.004C297.029 458.218 304.417 459.378 310.86 459.562L318.187 485.079L296.416 511.67C288.534 507.443 284.11 504.739 283.679 502.301Z" fill="#535568"/>
<path d="M283.679 502.301C281.832 491.838 289.252 464.946 291.336 462.004C297.977 457.192 303.672 462.725 310.824 460.825L318.187 485.079L296.416 511.67C288.534 507.443 284.11 504.739 283.679 502.301Z" fill="#535568"/>
<path d="M314.099 436.308C320.609 427.074 346.161 415.729 350.843 415.686C357.395 417.637 360.092 423.489 364.444 428.131L349.694 451.236L320.917 459.242C319.612 453.197 312.851 438.078 314.099 436.308Z" fill="#535568"/>
<path d="M314.099 436.308C320.609 427.074 346.161 415.729 350.843 415.686C358.379 417.93 359.874 424.9 365.911 429.179L349.694 451.236L320.917 459.242C319.612 453.197 312.851 438.078 314.099 436.308Z" fill="#535568"/>
<path d="M724.294 608.27C721.664 611.69 680.7 613.022 679.393 610.176C673.701 605.033 674.966 588.311 672.983 580.852L701.525 570.355L725.636 589.643C726.866 600.241 727.061 604.671 724.294 608.27Z" fill="#535568"/>
<path d="M724.294 608.27C721.664 611.69 680.7 613.022 679.393 610.176C672.846 604.26 677.343 588.213 672.983 580.852L701.525 570.355L725.636 589.643C726.866 600.241 727.061 604.671 724.294 608.27Z" fill="#535568"/>
<path d="M724.294 608.27C721.664 611.69 680.7 613.022 679.393 610.176C672.846 604.26 677.343 588.213 672.983 580.852L701.525 570.355L725.636 589.643C726.866 600.241 727.061 604.671 724.294 608.27Z" fill="#535568"/>
<path d="M529.695 409.042C526.849 406.187 477.5 405.994 476.496 408.492C471.467 413.123 474.733 426.677 473.492 433.175L507.165 439.289L534.81 425.688C532.534 416.67 532.691 412.047 529.695 409.042Z" fill="#535568"/>
<path d="M529.695 409.042C526.849 406.187 477.5 405.994 476.496 408.492C470.711 413.819 477.035 426.678 473.492 433.175L507.165 439.289L534.81 425.688C532.534 416.67 532.691 412.047 529.695 409.042Z" fill="#535568"/>
<path d="M529.695 409.042C526.849 406.187 477.5 405.994 476.496 408.492C470.711 413.819 477.035 426.678 473.492 433.175L507.165 439.289L534.81 425.688C532.534 416.67 532.691 412.047 529.695 409.042Z" fill="#535568"/>
<path d="M594.81 608.375C597.559 611.325 646.873 613.181 647.961 610.718C653.143 606.259 650.336 592.603 651.795 586.151L618.348 578.905L590.26 591.566C592.23 600.655 591.918 605.271 594.81 608.375Z" fill="#535568"/>
<path d="M594.81 608.375C597.559 611.325 646.873 613.181 647.961 610.718C653.922 605.589 648.035 592.524 651.795 586.151L618.348 578.905L590.26 591.566C592.23 600.655 591.918 605.271 594.81 608.375Z" fill="#535568"/>
<path d="M594.81 608.375C597.559 611.325 646.873 613.181 647.961 610.718C653.922 605.589 648.035 592.524 651.795 586.151L618.348 578.905L590.26 591.566C592.23 600.655 591.918 605.271 594.81 608.375Z" fill="#535568"/>
<path d="M453.054 408.121C450.218 404.425 408.965 405.917 407.243 409.742C402.464 414.63 405.109 421.73 404.21 428.284L436.949 439.671L458.469 425.294C455.953 415.522 455.148 410.848 453.054 408.121Z" fill="#535568"/>
<path d="M453.054 408.121C450.218 404.425 408.965 405.917 407.243 409.742C401.746 415.365 407.408 421.611 404.21 428.284L436.949 439.671L458.469 425.294C455.953 415.522 455.148 410.848 453.054 408.121Z" fill="#535568"/>
<path d="M453.054 408.121C450.218 404.425 408.965 405.917 407.243 409.742C401.746 415.365 407.408 421.611 404.21 428.284L436.949 439.671L458.469 425.294C455.953 415.522 455.148 410.848 453.054 408.121Z" fill="#535568"/>
<path d="M296.63 511.743C293.845 463.567 332.171 422.952 380.427 422.985C520.653 423.081 636.083 423.74 756.594 424.491C801.203 424.768 836.725 461.924 835 506.5C836.728 552.254 800.38 590.424 754.597 590.936L570 593L379.538 590.876C335.401 590.384 299.177 555.809 296.63 511.743Z" fill="#535568"/>
<path d="M371.5 455C424.756 449.587 464.353 447.988 553.5 448L659.5 445.5L709 448C727.961 449.91 738.328 451.339 756 455C771.497 459.428 779.161 463.199 791 472.5C800.439 485.03 803.468 492.046 803.5 504.5C803.683 517.592 801.846 524.33 795.5 535.5C786.534 546.834 780.58 552.431 767 560C724.401 566.432 700.915 567.57 659.5 566.5H553.5C491.407 565.218 456 566.5 399 562C363.112 559.167 350 551.5 332 543.5C321 530.5 318.528 525.927 322 497C332.12 474.814 342.845 465.52 371.5 455Z" fill="#767993"/>
<path d="M398.644 552.873C375.171 552.873 358.144 527.502 358.144 502.373C357.409 476.483 379.775 459.445 404.144 460.373C424.54 457.792 448.348 477.239 450.144 503.873C450.144 529.002 422.116 552.873 398.644 552.873Z" fill="#535568"/>
<path d="M558.25 552.734C534.778 552.734 519.25 528.593 519.25 503.464C517.665 477.143 540.493 458.591 565.75 459.964C586.146 457.383 609.955 476.829 611.75 503.464C613.738 529.486 583.337 553.456 558.25 552.734Z" fill="#535568"/>
<path d="M720.204 555.279C696.732 555.279 681.204 531.138 681.204 506.009C679.619 479.688 702.293 463.279 727.793 461.779C747.793 461.779 771.498 478.144 773.294 504.779C775.282 530.801 745.291 556.002 720.204 555.279Z" fill="#535568"/>
<path d="M401 494.5C406.541 494.5 412 498.68 412 505C412 508.131 410.499 511.094 408.47 513.231C406.451 515.358 403.587 517 400.5 517C397.599 517 394.767 515.768 392.665 513.863C390.553 511.95 389 509.187 389 506C389 502.752 390.733 499.877 392.908 497.893C395.08 495.911 398.032 494.5 401 494.5Z" fill="#535568" stroke="#757892" stroke-width="5"/>
<path d="M562.419 493.999C565.788 493.713 568.914 495.394 571.054 497.658C573.224 499.953 574.739 503.213 574.497 506.61C574.454 509.971 572.446 512.6 570.125 514.284C567.811 515.963 564.856 516.968 562.122 516.997C556.232 517.383 550.302 512.567 550.5 505.978C550.45 502.712 552.098 499.698 554.249 497.585C556.368 495.502 559.333 493.944 562.419 493.999Z" fill="#535568" stroke="#757892" stroke-width="5"/>
<path d="M716.082 499.558C718.093 497.434 720.969 495.824 724.083 496.002C727.338 496.034 730.353 498.016 732.415 500.318C734.489 502.635 736.106 505.835 736 509.023C736.07 512.554 734.062 515.172 731.626 516.768C729.256 518.32 726.273 519.076 723.569 519.001C717.413 519.458 711.793 514.736 712.504 507.843C712.589 504.675 714.056 501.697 716.082 499.558Z" fill="#535568" stroke="#757892" stroke-width="5"/>
<path d="M33.5259 295.526L221.526 297.495" stroke="black" stroke-width="5" stroke-linecap="round"/>
<path d="M77.9641 540C76.5834 540.01 75.4721 541.137 75.482 542.518C75.4919 543.899 76.6191 545.01 77.9998 545L77.9819 542.5L77.9641 540ZM77.9819 542.5L77.9998 545L218 544L217.982 541.5L217.964 539L77.9641 540L77.9819 542.5Z" fill="black"/>
<path d="M2.5 420.5H113.5" stroke="black" stroke-width="5" stroke-linecap="round"/>
</svg>
