<svg width="1068" height="611" viewBox="0 0 1068 611" fill="none" xmlns="http://www.w3.org/2000/svg">
<g clip-path="url(#clip0_130_814)">
<path d="M434.5 160C439.747 160 444 155.747 444 150.5C444 145.253 439.747 141 434.5 141C429.253 141 425 145.253 425 150.5C425 155.747 429.253 160 434.5 160Z" fill="#C3C3C3"/>
<path d="M411.5 158.5C416.747 158.5 421 154.247 421 149C421 143.753 416.747 139.5 411.5 139.5C406.253 139.5 402 143.753 402 149C402 154.247 406.253 158.5 411.5 158.5Z" fill="#C3C3C3"/>
<path opacity="0.9" d="M388.5 156C394.299 156 399 151.299 399 145.5C399 139.701 394.299 135 388.5 135C382.701 135 378 139.701 378 145.5C378 151.299 382.701 156 388.5 156Z" fill="#C3C3C3"/>
<path opacity="0.75" d="M368.5 141C374.851 141 380 135.851 380 129.5C380 123.149 374.851 118 368.5 118C362.149 118 357 123.149 357 129.5C357 135.851 362.149 141 368.5 141Z" fill="#C3C3C3"/>
<path opacity="0.5" d="M350.5 119C357.404 119 363 113.404 363 106.5C363 99.5964 357.404 94 350.5 94C343.596 94 338 99.5964 338 106.5C338 113.404 343.596 119 350.5 119Z" fill="#C3C3C3"/>
<path opacity="0.2" d="M340 89C348.284 89 355 82.2843 355 74C355 65.7157 348.284 59 340 59C331.716 59 325 65.7157 325 74C325 82.2843 331.716 89 340 89Z" fill="#C3C3C3"/>
<path d="M933.096 70.7266L1042.89 212.664L1005.47 237.37L879.43 117.232L933.096 70.7266Z" fill="#F5B84A"/>
<path d="M714 143.875L900.601 0C926.484 35.2063 944.98 57.9546 942.451 60.0692C949.839 66.3896 826.096 188.556 733.202 288.235L714 143.875Z" fill="#E28E3D"/>
<path d="M1003.5 264.499L1046.83 275.156L1048.31 345.883L995.132 280.485L1003.5 264.499Z" fill="#F5B84A"/>
<path d="M879.43 319.723L904.54 344.429L886.323 359.446L862.69 331.349L879.43 319.723Z" fill="#F5B84A"/>
<path d="M905.032 299.861L927.68 327.474L912.417 338.616L889.277 312.456L905.032 299.861Z" fill="#F5B84A"/>
<path d="M931.127 281.453L953.775 309.55L937.527 321.176L915.371 293.079L931.127 281.453Z" fill="#F5B84A"/>
<path d="M1047.32 349.758C1047.32 384.538 1000.57 420 966.576 420C929.65 415.156 907.494 386.09 884.353 356.54C972.484 292.2 944.42 315.848 995.132 280C1029.12 280 1047.32 314.977 1047.32 349.758Z" fill="#F5B84A"/>
<path d="M1068 243.184C1068 260.039 1057.88 274.671 1039.94 274.671C1018.91 277.727 994.974 263.612 998.579 243.184C998.545 225.014 1020.99 209.126 1038.95 209.758C1056.9 209.758 1068 226.328 1068 243.184Z" fill="#E28E3D"/>
<path d="M890 46.5C896.789 46.5 903 52.2611 903 59C903 61.9527 902.286 65.4477 900.285 68.1299C898.151 70.9901 894.732 72.6629 890.129 71.9727C884.347 71.1053 880.708 69.6894 878.868 66.9727C877.938 65.5998 877.635 64.1315 877.531 62.8066C877.435 61.5838 877.5 60.1241 877.5 59C877.5 52.4175 883.052 46.5003 890 46.5Z" fill="#E28E3D" stroke="#F5B84A" stroke-width="5"/>
<path d="M1032.5 229.5C1039.29 229.5 1045.5 235.261 1045.5 242C1045.5 245.041 1044.62 248.545 1042.48 251.203C1040.23 253.998 1036.72 255.661 1032.13 254.973C1026.23 254.088 1022.65 252.449 1020.85 249.636C1019.96 248.243 1019.66 246.786 1019.56 245.496C1019.46 244.317 1019.53 242.925 1019.52 242.012C1019.51 238.904 1021.16 235.8 1023.41 233.547C1025.69 231.266 1028.91 229.5 1032.5 229.5Z" fill="#E28E3D" stroke="#F5B84A" stroke-width="5"/>
<path d="M379.5 224.166H731.5L758 434.166L362 431.166C367.872 318.902 371.637 252.343 379.5 224.166Z" fill="#F5B84A"/>
<path d="M527 70.666C614.645 68.3669 685.724 63.7154 713 70.666C714 81.666 723.104 166.368 731.5 224.166H507.5C514.099 156.44 516.973 112.137 527 70.666Z" fill="#F5B84A"/>
<path d="M562 108.999C575.07 106.545 625.432 104.73 677 107.999C680.883 134.654 684.463 174.728 690 230.999H556.5C556.988 174.366 556.756 125.945 562 108.999Z" fill="#FDEFDC"/>
<path d="M403 211.738C406 208.239 469.5 203.5 473 208.5C476.5 213.501 475.904 220.135 476.5 224.239H398.5C398.5 224.239 400 215.237 403 211.738Z" fill="#616375"/>
<path d="M450 162H425V209H450V162Z" fill="#616375"/>
<path d="M411 139C431.017 138.83 441.669 138.836 445.5 141.5C447.924 142.59 448.77 148.53 450 162H425C422.499 161.55 411 159 411 159V139Z" fill="#616375"/>
<path d="M412.155 257.396C420.514 257.13 426.184 257.498 434.334 257.878C436.91 257.999 439.007 260.051 439.106 262.668C439.999 286.293 440.294 314.724 440.268 337.574C440.255 349 440.162 359.04 440.022 366.392C439.952 370.067 439.87 373.079 439.781 375.262C439.736 376.352 439.69 377.249 439.64 377.923C439.615 378.259 439.589 378.556 439.56 378.802C439.536 379.005 439.496 379.305 439.417 379.571C439.126 380.545 438.326 381.036 437.956 381.236C437.488 381.488 436.943 381.675 436.409 381.822C435.324 382.12 433.907 382.353 432.334 382.537C429.166 382.907 425.066 383.109 421.022 383.152C416.978 383.195 412.922 383.079 409.84 382.795C408.314 382.655 406.948 382.466 405.923 382.212C405.426 382.089 404.89 381.923 404.432 381.677C404.129 381.514 403.079 380.909 403.003 379.617L403.001 379.583L403 379.55C401.753 329.875 404.967 305.655 407.356 262.119C407.496 259.572 409.547 257.479 412.155 257.396Z" stroke="#EFAB46" stroke-width="4"/>
<path d="M435.487 253.048C435.53 256.059 435.405 257.6 435 260.168C435 260.168 436.455 263.763 436.461 260.881C436.466 257.998 438.409 254.472 437.922 254.472C437.922 254.472 435.444 250.037 435.487 253.048Z" fill="#F5B84A" stroke="#F5B84A"/>
<path d="M493.778 257.915C496.412 257.964 498.508 260.062 498.605 262.667C499.494 286.326 499.734 315.183 499.653 338.449C499.613 350.083 499.493 360.329 499.333 367.835C499.253 371.587 499.163 374.664 499.067 376.891C499.02 378.003 498.971 378.916 498.92 379.602C498.894 379.944 498.867 380.245 498.838 380.494C498.814 380.698 498.774 381 498.694 381.266C498.404 382.24 497.604 382.73 497.233 382.93C496.766 383.183 496.221 383.37 495.687 383.517C494.601 383.815 493.185 384.047 491.612 384.231C488.444 384.601 484.343 384.804 480.3 384.847C476.256 384.89 472.2 384.774 469.118 384.491C467.591 384.35 466.226 384.161 465.201 383.908C464.704 383.785 464.168 383.619 463.71 383.373C463.407 383.21 462.357 382.604 462.281 381.312L462.279 381.279L462.278 381.246C461.031 331.57 464.245 307.351 466.634 263.814C466.774 261.254 468.827 259.206 471.378 259.057C479.509 258.582 485.467 257.758 493.778 257.915Z" stroke="#EFAB46" stroke-width="4"/>
<path d="M491 260.5C492.945 259.083 492.703 257.026 491.5 254.5C498.272 252.838 500.402 255.459 500 260.5C497.433 259.77 496.219 260.932 496 264L491 260.5Z" fill="#F5B84A" stroke="#F5B84A"/>
<path d="M558.856 264.825C558.937 264.348 559.352 264 559.837 264H606.5C608.017 263.867 607.433 276.721 606.628 281.773C606.559 282.209 606.204 282.529 605.763 282.561C598.062 283.105 566.855 283.17 559.242 282.12C558.798 282.059 558.475 281.691 558.44 281.244C557.866 273.84 557.98 270.003 558.856 264.825Z" fill="#EFAB46"/>
<path d="M400 408C413.019 405.208 421.552 405.318 437.5 406.5C440.751 407.698 443.809 411.923 450.5 423L420 434L389.5 423C393.375 414.479 395.66 410.975 400 408Z" fill="#535568"/>
<path d="M418.295 608.001C425.295 610.001 452.489 608.689 457.295 608.001C462.1 607.313 461.601 603.054 466.295 591.5C466.295 591.5 410.794 589.5 412.295 590.5C413.795 591.5 411.295 606.001 418.295 608.001Z" fill="#535568"/>
<path d="M592.5 609C599.5 611 634.701 610.397 637.201 609.771C639.701 609.146 643.306 600.054 648 588.501C648 588.501 586 586.5 586.5 588C587 589.5 585.5 607 592.5 609Z" fill="#535568"/>
<path d="M478.715 405.718C489.249 403.647 504.283 402.554 524.715 402.718C531.161 407.584 531.916 415.498 535 423.592L503.5 430.5L470 423.592C474.129 413.734 474.09 409.16 478.715 405.718Z" fill="#535568"/>
<path d="M548.462 607.645C537.895 609.741 521.306 608.824 500.807 608.657C494.34 603.733 497.094 600.193 494 592L526.5 580.5L560 592C555.857 601.978 553.102 604.161 548.462 607.645Z" fill="#535568"/>
<path d="M681.5 607.566C692.388 609.785 709.479 608.813 730.599 608.637C737.262 603.423 734.312 599.675 737.5 591L702.5 577.5L669 591C673.268 601.565 676.72 603.877 681.5 607.566Z" fill="#535568"/>
<path d="M572.5 405C584 405 591.81 405 608 405C614.128 409.966 619.774 415.813 622.706 424.075L591.81 436.932L560 424.075C563.926 414.013 568.5 410 572.5 405Z" fill="#535568"/>
<path d="M652.5 404C667 401.5 687.5 402.5 693.5 404C699 410.5 702.568 415.738 705.5 424L673.013 436.857L641 424C644.926 413.938 649.544 404.509 652.5 404Z" fill="#535568"/>
<path d="M731.5 405.5C746 403 769 405.001 775 406.5C780.5 413.001 783.568 422.739 786.5 431L753.013 440.38L720 424.5C723.926 414.439 728.544 406.01 731.5 405.5Z" fill="#535568"/>
<path d="M731.5 405.5C746 403 769 405.001 775 406.5C780.5 413.001 783.568 422.739 786.5 431L753.013 440.38L720 424.5C723.926 414.439 728.544 406.01 731.5 405.5Z" fill="#535568"/>
<path d="M819 428C827.333 434.592 838.719 459.932 840.5 464.058C838.761 470.67 834.5 470.5 830 475L805.229 464.058L798 436C806 431.5 817.301 426.656 819 428Z" fill="#535568"/>
<path d="M819 428C827.333 434.592 838.719 459.932 840.5 464.058C838.5 471.663 830.93 471.119 826.848 477.291L805.229 464.058L798 436C806 431.5 817.301 426.656 819 428Z" fill="#535568"/>
<path d="M382 604C371.594 606.147 344.5 599.5 341.5 597.5C337.553 591.918 338.5 584.5 338.5 578.055L363.797 570L391 591C387 599 384.424 603.5 382 604Z" fill="#535568"/>
<path d="M382 604C371.594 606.147 344.5 599.5 341.5 597.5C336.5 591 341.868 585.149 339.764 578.055L363.797 570L391 591C387 599 384.424 603.5 382 604Z" fill="#535568"/>
<path d="M311.298 584.055C301.859 577.847 289.695 552.674 289.5 547.996C291.239 541.385 297 538.5 301.5 534L325.069 547.997L334 576.5C328 578 313.108 585.245 311.298 584.055Z" fill="#535568"/>
<path d="M311.298 584.055C301.859 577.847 289.695 552.674 289.5 547.996C291.5 540.391 298.418 538.672 302.5 532.5L325.069 547.997L334 576.5C328 578 313.108 585.245 311.298 584.055Z" fill="#535568"/>
<path d="M851 501.5C853.85 504.351 853.5 544 851 545.001C846.361 550.022 832 547.271 825.5 548.501L817.5 520L835 498.5C844.176 498.283 848 498.5 851 501.5Z" fill="#535568"/>
<path d="M851 501.5C853.85 504.351 853.5 544 851 545.001C845.664 550.777 832.002 544.968 825.5 548.501L817.5 520L835 498.5C844.176 498.283 848 498.5 851 501.5Z" fill="#535568"/>
<path d="M851 501.5C853.85 504.351 853.5 544 851 545.001C845.664 550.777 832.002 544.968 825.5 548.501L817.5 520L835 498.5C844.176 498.283 848 498.5 851 501.5Z" fill="#535568"/>
<path d="M358.713 410.778C355.002 409.203 309.204 427.585 309.213 430.278C306.295 436.46 314.419 447.79 315.713 454.278L349.213 447.278L369.713 424.278C364.213 416.778 362.618 412.435 358.713 410.778Z" fill="#535568"/>
<path d="M358.713 410.778C355.002 409.203 309.204 427.585 309.213 430.278C305.856 437.389 316.553 446.926 315.713 454.278L349.213 447.278L369.713 424.278C364.213 416.778 362.618 412.435 358.713 410.778Z" fill="#535568"/>
<path d="M358.713 410.778C355.002 409.203 309.204 427.585 309.213 430.278C305.856 437.389 316.553 446.926 315.713 454.278L349.213 447.278L369.713 424.278C364.213 416.778 362.618 412.435 358.713 410.778Z" fill="#535568"/>
<path d="M774.502 604.12C778.213 605.695 824.011 587.313 824.002 584.62C826.92 578.438 818.796 567.107 817.502 560.62L784.002 567.62L763.502 590.62C769.002 598.12 770.596 602.462 774.502 604.12Z" fill="#535568"/>
<path d="M774.502 604.12C778.213 605.695 824.011 587.313 824.002 584.62C827.358 577.509 816.662 567.972 817.502 560.62L784.002 567.62L763.502 590.62C769.002 598.12 770.596 602.462 774.502 604.12Z" fill="#535568"/>
<path d="M774.502 604.12C778.213 605.695 824.011 587.313 824.002 584.62C827.358 577.509 816.662 567.972 817.502 560.62L784.002 567.62L763.502 590.62C769.002 598.12 770.596 602.462 774.502 604.12Z" fill="#535568"/>
<path d="M291.5 462C287.168 463.714 277.294 503.796 280.5 506.501C283.891 512.437 291.444 511.84 297.5 514.501L317.426 486.138L309.5 461.5C299.412 461.242 294.697 460.735 291.5 462Z" fill="#535568"/>
<path d="M291.5 462C287.168 463.714 277.294 503.796 280.5 506.501C284.4 513.329 291.959 509.596 297.5 514.501L317.426 486.138L309.5 461.5C299.412 461.242 294.697 460.735 291.5 462Z" fill="#535568"/>
<path d="M291.5 462C287.168 463.714 277.294 503.796 280.5 506.501C284.4 513.329 291.959 509.596 297.5 514.501L317.426 486.138L309.5 461.5C299.412 461.242 294.697 460.735 291.5 462Z" fill="#535568"/>
<path d="M296.63 511.743C293.845 463.567 332.171 422.952 380.427 422.985C520.653 423.081 636.083 423.74 756.594 424.491C801.203 424.768 836.725 461.924 835 506.5C836.728 552.254 800.38 590.424 754.597 590.936L570 593L379.538 590.876C335.401 590.384 299.177 555.809 296.63 511.743Z" fill="#535568"/>
<path d="M371.5 455C424.756 449.587 464.353 447.988 553.5 448L659.5 445.5L709 448C727.961 449.91 738.328 451.339 756 455C771.497 459.428 779.161 463.199 791 472.5C800.438 485.03 803.468 492.046 803.5 504.5C803.683 517.592 801.846 524.33 795.5 535.5C786.534 546.834 780.58 552.431 767 560C724.401 566.432 700.914 567.57 659.5 566.5H553.5C491.407 565.218 456 566.5 399 562C363.112 559.167 350 551.5 332 543.5C321 530.5 318.528 525.927 322 497C332.12 474.814 342.844 465.52 371.5 455Z" fill="#767993"/>
<path d="M450.5 512C450.5 535.472 425.129 552.5 400 552.5C374.11 553.235 357.072 530.869 358 506.5C355.419 486.104 374.865 462.296 401.5 460.5C426.629 460.5 450.5 488.528 450.5 512Z" fill="#535568"/>
<path d="M612 513.5C612 536.972 587.859 552.5 562.73 552.5C536.409 554.085 517.857 531.257 519.23 506C516.649 485.604 536.095 461.795 562.73 460C588.752 458.012 612.722 488.413 612 513.5Z" fill="#535568"/>
<path d="M774 515.589C774 539.061 749.859 554.589 724.73 554.589C698.409 556.174 682 533.5 680.5 508C680.5 488 696.865 464.295 723.5 462.5C749.522 460.511 774.722 490.503 774 515.589Z" fill="#535568"/>
<path d="M401 494.5C406.541 494.5 412 498.68 412 505C412 508.131 410.499 511.094 408.47 513.231C406.451 515.358 403.587 517 400.5 517C397.599 517 394.767 515.768 392.665 513.863C390.553 511.95 389 509.187 389 506C389 502.752 390.733 499.877 392.908 497.893C395.08 495.911 398.032 494.5 401 494.5Z" fill="#535568" stroke="#757892" stroke-width="5"/>
<path d="M562.419 493.999C565.788 493.713 568.914 495.394 571.054 497.658C573.224 499.953 574.739 503.213 574.497 506.61C574.454 509.971 572.446 512.6 570.125 514.284C567.811 515.963 564.856 516.968 562.122 516.997C556.232 517.383 550.302 512.567 550.5 505.978C550.45 502.712 552.098 499.698 554.249 497.585C556.368 495.502 559.333 493.944 562.419 493.999Z" fill="#535568" stroke="#757892" stroke-width="5"/>
<path d="M716.082 499.558C718.093 497.434 720.969 495.824 724.083 496.002C727.338 496.034 730.353 498.016 732.415 500.318C734.489 502.635 736.106 505.835 736 509.023C736.07 512.554 734.062 515.172 731.626 516.768C729.256 518.32 726.273 519.076 723.569 519.001C717.413 519.458 711.793 514.736 712.504 507.843C712.589 504.675 714.056 501.697 716.082 499.558Z" fill="#535568" stroke="#757892" stroke-width="5"/>
<path d="M33.5259 295.526L221.526 297.495" stroke="black" stroke-width="5" stroke-linecap="round"/>
<path d="M77.9643 540C76.5836 540.01 75.4724 541.137 75.4822 542.518C75.4921 543.899 76.6194 545.01 78 545L77.9822 542.5L77.9643 540ZM77.9822 542.5L78 545L218 544L217.982 541.5L217.964 539L77.9643 540L77.9822 542.5Z" fill="black"/>
<path d="M2.5 420.5H113.5" stroke="black" stroke-width="5" stroke-linecap="round"/>
</g>
<defs>
<clipPath id="clip0_130_814">
<rect width="1068" height="611" fill="white"/>
</clipPath>
</defs>
</svg>
