<svg width="1037" height="622" viewBox="0 0 1037 622" fill="none" xmlns="http://www.w3.org/2000/svg">
<path d="M370.5 159C375.747 159 380 154.747 380 149.5C380 144.253 375.747 140 370.5 140C365.253 140 361 144.253 361 149.5C361 154.747 365.253 159 370.5 159Z" fill="#C3C3C3"/>
<path opacity="0.9" d="M346.5 152C352.299 152 357 147.299 357 141.5C357 135.701 352.299 131 346.5 131C340.701 131 336 135.701 336 141.5C336 147.299 340.701 152 346.5 152Z" fill="#C3C3C3"/>
<path opacity="0.75" d="M324.5 134C330.851 134 336 128.851 336 122.5C336 116.149 330.851 111 324.5 111C318.149 111 313 116.149 313 122.5C313 128.851 318.149 134 324.5 134Z" fill="#C3C3C3"/>
<path opacity="0.5" d="M308.5 108C315.404 108 321 102.404 321 95.5C321 88.5964 315.404 83 308.5 83C301.596 83 296 88.5964 296 95.5C296 102.404 301.596 108 308.5 108Z" fill="#C3C3C3"/>
<path d="M902.096 70.7266L1011.89 212.664L974.471 237.37L848.43 117.232L902.096 70.7266Z" fill="#F5B84A"/>
<path d="M683 143.875L869.601 0C895.484 35.2063 913.98 57.9546 911.451 60.0692C918.839 66.3896 795.096 188.556 702.202 288.235L683 143.875Z" fill="#E28E3D"/>
<path d="M972.502 264.499L1015.83 275.156L1017.31 345.883L964.132 280.485L972.502 264.499Z" fill="#F5B84A"/>
<path d="M848.43 319.723L873.54 344.429L855.323 359.446L831.69 331.349L848.43 319.723Z" fill="#F5B84A"/>
<path d="M874.032 299.861L896.68 327.474L881.417 338.616L858.277 312.456L874.032 299.861Z" fill="#F5B84A"/>
<path d="M900.127 281.453L922.775 309.55L906.527 321.176L884.372 293.079L900.127 281.453Z" fill="#F5B84A"/>
<path d="M1016.32 349.758C1016.32 384.538 969.565 420 935.575 420C898.649 415.156 876.494 386.09 853.353 356.54C941.484 292.2 913.42 315.848 964.132 280C998.122 280 1016.32 314.977 1016.32 349.758Z" fill="#F5B84A"/>
<path d="M1037 243.184C1037 260.039 1026.88 274.671 1008.94 274.671C987.908 277.727 963.973 263.612 967.578 243.184C967.545 225.014 989.988 209.126 1007.95 209.758C1025.9 209.758 1037 226.328 1037 243.184Z" fill="#E28E3D"/>
<path d="M859 46.5C865.789 46.5 872 52.2611 872 59C872 61.9527 871.286 65.4477 869.285 68.1299C867.151 70.9901 863.732 72.6629 859.129 71.9727C853.347 71.1053 849.708 69.6894 847.868 66.9727C846.938 65.5998 846.635 64.1315 846.531 62.8066C846.435 61.5838 846.5 60.1241 846.5 59C846.5 52.4175 852.052 46.5003 859 46.5Z" fill="#E28E3D" stroke="#F5B84A" stroke-width="5"/>
<path d="M1001.5 229.5C1008.29 229.5 1014.5 235.261 1014.5 242C1014.5 245.041 1013.62 248.545 1011.48 251.203C1009.23 253.998 1005.72 255.661 1001.13 254.973C995.233 254.088 991.646 252.449 989.85 249.636C988.961 248.243 988.663 246.786 988.56 245.496C988.465 244.317 988.527 242.925 988.522 242.012C988.508 238.904 990.164 235.8 992.411 233.547C994.685 231.266 997.914 229.5 1001.5 229.5Z" fill="#E28E3D" stroke="#F5B84A" stroke-width="5"/>
<path d="M348.5 224.166H700.5L727 434.166L331 431.166C336.872 318.902 340.637 252.343 348.5 224.166Z" fill="#F5B84A"/>
<path d="M496 70.666C583.645 68.3669 654.724 63.7154 682 70.666C683 81.666 692.104 166.368 700.5 224.166H476.5C483.099 156.44 485.973 112.137 496 70.666Z" fill="#F5B84A"/>
<path d="M531 108.999C544.07 106.545 594.432 104.73 646 107.999C649.883 134.654 653.463 174.728 659 230.999H525.5C525.988 174.366 525.756 125.945 531 108.999Z" fill="#FDEFDC"/>
<path d="M372 211.738C375 208.239 438.5 203.5 442 208.5C445.5 213.501 444.904 220.135 445.5 224.239H367.5C367.5 224.239 369 215.237 372 211.738Z" fill="#616375"/>
<path d="M419 162H394V209H419V162Z" fill="#616375"/>
<path d="M380 139C400.017 138.83 410.669 138.836 414.5 141.5C416.924 142.59 417.77 148.53 419 162H394C391.499 161.55 380 159 380 159V139Z" fill="#616375"/>
<path d="M381.155 257.396C389.514 257.13 395.184 257.498 403.334 257.878C405.91 257.999 408.007 260.051 408.106 262.668C408.999 286.293 409.294 314.724 409.268 337.574C409.255 349 409.162 359.04 409.022 366.392C408.952 370.067 408.87 373.079 408.781 375.262C408.736 376.352 408.69 377.249 408.64 377.923C408.615 378.259 408.589 378.556 408.56 378.802C408.536 379.005 408.496 379.305 408.417 379.571C408.126 380.545 407.326 381.036 406.956 381.236C406.488 381.488 405.943 381.675 405.409 381.822C404.324 382.12 402.907 382.353 401.334 382.537C398.166 382.907 394.066 383.109 390.022 383.152C385.978 383.195 381.922 383.079 378.84 382.795C377.314 382.655 375.948 382.466 374.923 382.212C374.426 382.089 373.89 381.923 373.432 381.677C373.129 381.514 372.079 380.909 372.003 379.617L372.001 379.583L372 379.55C370.753 329.875 373.967 305.655 376.356 262.119C376.496 259.572 378.547 257.479 381.155 257.396Z" stroke="#EFAB46" stroke-width="4"/>
<path d="M404.487 253.048C404.53 256.059 404.405 257.6 404 260.168C404 260.168 405.455 263.763 405.461 260.881C405.466 257.998 407.409 254.472 406.922 254.472C406.922 254.472 404.444 250.037 404.487 253.048Z" fill="#F5B84A" stroke="#F5B84A"/>
<path d="M462.778 257.915C465.412 257.964 467.508 260.062 467.605 262.667C468.494 286.326 468.734 315.183 468.653 338.449C468.613 350.083 468.493 360.329 468.333 367.835C468.253 371.587 468.163 374.664 468.067 376.891C468.02 378.003 467.971 378.916 467.92 379.602C467.894 379.944 467.867 380.245 467.838 380.494C467.814 380.698 467.774 381 467.694 381.266C467.404 382.24 466.604 382.73 466.233 382.93C465.766 383.183 465.221 383.37 464.687 383.517C463.601 383.815 462.185 384.047 460.612 384.231C457.444 384.601 453.343 384.804 449.3 384.847C445.256 384.89 441.2 384.774 438.118 384.491C436.591 384.35 435.226 384.161 434.201 383.908C433.704 383.785 433.168 383.619 432.71 383.373C432.407 383.21 431.357 382.604 431.281 381.312L431.279 381.279L431.278 381.246C430.031 331.57 433.245 307.351 435.634 263.814C435.774 261.254 437.827 259.206 440.378 259.057C448.509 258.582 454.467 257.758 462.778 257.915Z" stroke="#EFAB46" stroke-width="4"/>
<path d="M460 260.5C461.945 259.083 461.703 257.026 460.5 254.5C467.272 252.838 469.402 255.459 469 260.5C466.433 259.77 465.219 260.932 465 264L460 260.5Z" fill="#F5B84A" stroke="#F5B84A"/>
<path d="M527.856 264.825C527.937 264.348 528.352 264 528.836 264H575.5C577.017 263.867 576.432 276.721 575.628 281.773C575.558 282.209 575.204 282.529 574.763 282.561C567.062 283.105 535.855 283.17 528.242 282.12C527.797 282.059 527.474 281.691 527.44 281.244C526.866 273.84 526.98 270.003 527.856 264.825Z" fill="#EFAB46"/>
<path d="M449.5 408C462.519 405.208 471.052 405.318 487 406.5C490.251 407.698 493.309 411.923 500 423L469.5 434L439 423C442.875 414.479 445.16 410.975 449.5 408Z" fill="#535568"/>
<path d="M312.221 596.625C318.711 599.923 345.656 603.822 350.505 604.063C355.353 604.305 355.675 600.029 362.487 589.583C362.487 589.583 308.387 577.033 309.669 578.301C310.951 579.568 305.731 593.326 312.221 596.625Z" fill="#535568"/>
<path d="M469.003 609C476.003 611 511.204 610.397 513.704 609.771C516.204 609.146 519.809 600.054 524.503 588.501C524.503 588.501 462.503 586.5 463.003 588C463.503 589.5 462.003 607 469.003 609Z" fill="#535568"/>
<path d="M537.715 405.718C548.249 403.647 563.283 402.554 583.715 402.718C590.161 407.584 590.916 415.498 594 423.592L562.5 430.5L529 423.592C533.129 413.734 533.09 409.16 537.715 405.718Z" fill="#535568"/>
<path d="M435.722 607.645C425.154 609.741 408.566 608.824 388.067 608.657C381.6 603.733 384.354 600.193 381.26 592L413.76 580.5L447.26 592C443.117 601.978 440.362 604.161 435.722 607.645Z" fill="#535568"/>
<path d="M567.5 607.566C578.388 609.785 595.479 608.813 616.599 608.637C623.262 603.423 620.312 599.675 623.5 591L588.5 577.5L555 591C559.268 601.565 562.72 603.877 567.5 607.566Z" fill="#535568"/>
<path d="M622.5 405C634 405 641.81 405 658 405C664.128 409.966 669.774 415.813 672.706 424.075L641.81 436.932L610 424.075C613.926 414.013 618.5 410 622.5 405Z" fill="#535568"/>
<path d="M703.32 408.113C717.983 406.886 738.318 409.669 744.164 411.686C749.077 418.641 752.175 424.17 754.375 432.656L720.891 442.633L690.121 427.034C694.908 417.353 700.331 408.363 703.32 408.113Z" fill="#535568"/>
<path d="M784.112 432.572C795.347 442.072 808.599 460.977 811.307 466.538C809.862 474.929 804.375 483.539 799.931 491.095L771.22 471.472L762.165 435.975C772.396 432.515 781.821 430.634 784.112 432.572Z" fill="#535568"/>
<path d="M784.112 432.572C795.347 442.072 808.599 460.977 811.307 466.538C809.862 474.929 804.375 483.539 799.931 491.095L771.22 471.472L762.165 435.975C772.396 432.515 781.821 430.634 784.112 432.572Z" fill="#535568"/>
<path d="M816.998 506.377C819.785 516.63 813.887 543.777 812.868 548.154C807.541 552.44 804.215 549.771 797.921 550.717L784.498 527.198L795.354 500.334C804.462 501.468 816.43 504.286 816.998 506.377Z" fill="#535568"/>
<path d="M816.998 506.377C819.785 516.63 813.887 543.777 812.868 548.154C806.741 553.083 800.975 548.148 794.024 550.687L784.498 527.198L795.354 500.334C804.462 501.468 816.43 504.286 816.998 506.377Z" fill="#535568"/>
<path d="M274.908 569.023C266.652 562.334 254.621 537.165 254.267 533.577C256.083 526.986 262.421 523.017 267.407 518.932L289.67 533.394L290.667 567.745C281.944 569.722 276.831 570.581 274.908 569.023Z" fill="#535568"/>
<path d="M274.908 569.023C266.652 562.334 254.621 537.165 254.267 533.577C256.126 525.59 264.053 526.033 268.208 519.909L289.67 533.394L290.667 567.745C281.944 569.722 276.831 570.581 274.908 569.023Z" fill="#535568"/>
<path d="M253.754 503.91C250.787 493.01 258.329 466.088 261.279 462.453C266.959 458.647 273.187 460.298 279.538 459.903L287.942 485.994L275.772 513.273C270.282 510.426 254.323 506.001 253.754 503.91Z" fill="#535568"/>
<path d="M253.754 503.91C250.787 493.01 258.329 466.088 261.279 462.453C267.812 458.076 274.135 461.365 281.281 459.44L287.942 485.994L275.772 513.273C270.282 510.426 254.323 506.001 253.754 503.91Z" fill="#535568"/>
<path d="M778.413 589.723C777.301 593.598 742.45 612.508 740.363 610.806C733.722 609.181 729.169 595.286 724.943 590.197L745.996 569.386L773.283 574.274C777.921 582.195 779.584 585.645 778.413 589.723Z" fill="#535568"/>
<path d="M778.413 589.723C777.301 593.598 742.45 612.508 740.363 610.806C732.725 608.937 731.184 594.172 724.943 590.197L745.996 569.386L773.283 574.274C777.921 582.195 779.584 585.645 778.413 589.723Z" fill="#535568"/>
<path d="M778.413 589.723C777.301 593.598 742.45 612.508 740.363 610.806C732.725 608.937 731.184 594.172 724.943 590.197L745.996 569.386L773.283 574.274C777.921 582.195 779.584 585.645 778.413 589.723Z" fill="#535568"/>
<path d="M416.582 409.042C413.736 406.187 364.388 405.994 363.383 408.492C358.354 413.123 361.62 426.677 360.379 433.175L394.052 439.289L421.697 425.688C419.422 416.67 419.578 412.047 416.582 409.042Z" fill="#535568"/>
<path d="M416.582 409.042C413.736 406.187 364.388 405.994 363.383 408.492C357.598 413.819 363.922 426.678 360.379 433.175L394.052 439.289L421.697 425.688C419.422 416.67 419.578 412.047 416.582 409.042Z" fill="#535568"/>
<path d="M416.582 409.042C413.736 406.187 364.388 405.994 363.383 408.492C357.598 413.819 363.922 426.678 360.379 433.175L394.052 439.289L421.697 425.688C419.422 416.67 419.578 412.047 416.582 409.042Z" fill="#535568"/>
<path d="M646.31 608.375C649.059 611.325 698.373 613.181 699.461 610.718C704.643 606.259 701.836 592.603 703.295 586.151L669.848 578.905L641.76 591.566C643.73 600.655 643.418 605.271 646.31 608.375Z" fill="#535568"/>
<path d="M646.31 608.375C649.059 611.325 698.373 613.181 699.461 610.718C705.422 605.589 699.535 592.524 703.295 586.151L669.848 578.905L641.76 591.566C643.73 600.655 643.418 605.271 646.31 608.375Z" fill="#535568"/>
<path d="M646.31 608.375C649.059 611.325 698.373 613.181 699.461 610.718C705.422 605.589 699.535 592.524 703.295 586.151L669.848 578.905L641.76 591.566C643.73 600.655 643.418 605.271 646.31 608.375Z" fill="#535568"/>
<path d="M318.784 412.649C314.46 410.916 279.73 433.229 280.198 437.397C278.579 444.039 284.473 448.799 287.041 454.895L321.011 448.003L332.197 424.663C325.05 417.539 321.975 413.929 318.784 412.649Z" fill="#535568"/>
<path d="M318.784 412.649C314.46 410.916 279.73 433.229 280.198 437.397C278.335 445.037 286.391 447.524 287.041 454.895L321.011 448.003L332.197 424.663C325.05 417.539 321.975 413.929 318.784 412.649Z" fill="#535568"/>
<path d="M318.784 412.649C314.46 410.916 279.73 433.229 280.198 437.397C278.335 445.037 286.391 447.524 287.041 454.895L321.011 448.003L332.197 424.663C325.05 417.539 321.975 413.929 318.784 412.649Z" fill="#535568"/>
<path d="M265.63 511.743C262.845 463.567 301.171 422.952 349.427 422.985C489.653 423.081 605.083 423.74 725.594 424.491C770.203 424.768 805.725 461.924 804 506.5C805.728 552.254 769.38 590.424 723.597 590.936L539 593L348.538 590.876C304.401 590.384 268.177 555.809 265.63 511.743Z" fill="#535568"/>
<path d="M340.5 455C393.756 449.587 433.353 447.988 522.5 448L628.5 445.5L678 448C696.961 449.91 707.328 451.339 725 455C740.497 459.428 748.161 463.199 760 472.5C769.439 485.03 772.468 492.046 772.5 504.5C772.683 517.592 770.846 524.33 764.5 535.5C755.534 546.834 749.58 552.431 736 560C693.401 566.432 669.915 567.57 628.5 566.5H522.5C460.407 565.218 425 566.5 368 562C332.112 559.167 319 551.5 301 543.5C290 530.5 287.528 525.927 291 497C301.12 474.814 311.845 465.52 340.5 455Z" fill="#767993"/>
<path d="M402.037 543.176C385.44 559.774 355.459 553.874 337.691 536.105C318.864 518.318 322.631 490.455 340.519 473.88C353.116 457.633 383.702 454.548 403.805 472.112C421.574 489.881 418.635 526.579 402.037 543.176Z" fill="#535568"/>
<path d="M562.251 544.248C545.654 560.846 517.603 554.755 499.835 536.986C480.102 519.496 483.126 490.236 501.956 473.347C514.553 457.099 545.139 454.015 565.242 471.579C585.048 488.573 580.501 527.02 562.251 544.248Z" fill="#535568"/>
<path d="M724.323 546.576C707.725 563.173 679.675 557.083 661.906 539.314C642.174 521.823 646.604 494.187 663.574 475.095C677.717 460.953 706.05 455.763 726.154 473.327C745.96 490.321 742.572 529.348 724.323 546.576Z" fill="#535568"/>
<path d="M370 494.5C375.541 494.5 381 498.68 381 505C381 508.131 379.499 511.094 377.47 513.231C375.451 515.358 372.587 517 369.5 517C366.599 517 363.767 515.768 361.665 513.863C359.553 511.95 358 509.187 358 506C358 502.752 359.733 499.877 361.908 497.893C364.08 495.911 367.032 494.5 370 494.5Z" fill="#535568" stroke="#757892" stroke-width="5"/>
<path d="M531.419 493.999C534.788 493.713 537.914 495.394 540.054 497.658C542.224 499.953 543.739 503.213 543.497 506.61C543.454 509.971 541.446 512.6 539.125 514.284C536.811 515.963 533.856 516.968 531.122 516.997C525.232 517.383 519.302 512.567 519.5 505.978C519.45 502.712 521.098 499.698 523.249 497.585C525.368 495.502 528.333 493.944 531.419 493.999Z" fill="#535568" stroke="#757892" stroke-width="5"/>
<path d="M685.082 499.558C687.093 497.434 689.969 495.824 693.083 496.002C696.338 496.034 699.353 498.016 701.415 500.318C703.489 502.635 705.106 505.835 705 509.023C705.07 512.554 703.062 515.172 700.626 516.768C698.256 518.32 695.273 519.076 692.569 519.001C686.413 519.458 680.793 514.736 681.504 507.843C681.589 504.675 683.056 501.697 685.082 499.558Z" fill="#535568" stroke="#757892" stroke-width="5"/>
<path d="M2.52588 295.526L190.526 297.495" stroke="black" stroke-width="5" stroke-linecap="round"/>
<path d="M46.9641 540C45.5834 540.01 44.4721 541.137 44.482 542.518C44.4919 543.899 45.6191 545.01 46.9998 545L46.9819 542.5L46.9641 540ZM46.9819 542.5L46.9998 545L187 544L186.982 541.5L186.964 539L46.9641 540L46.9819 542.5Z" fill="black"/>
<path d="M12.5 420.5H123.5" stroke="black" stroke-width="5" stroke-linecap="round"/>
</svg>
